HIERARCHY
ROOT Hips
{
	OFFSET 0.000000 0.000000 0.000000 
	CHANNELS 6 Xposition Yposition Zposition Yrotation Zrotation Xrotation 
	JOINT Lumbar
	{
		OFFSET 0.000000 0.000000 0.000000 
		CHANNELS 3 Zrotation Xrotation Yrotation
		JOINT Neck
		{
			OFFSET 0.000000 0.445665 0.000000 
			CHANNELS 3 Zrotation Xrotation Yrotation
			End Site
			{
				OFFSET 0.000000 0.227535 0.000000 
			}
		}
		JOINT RightShoulder
		{
			OFFSET 0.019635 0.377685 0.194865 
			CHANNELS 3 Zrotation Xrotation Yrotation
			JOINT RightElbow
			{
				OFFSET 0.000000 -0.243375 0.000000 
				CHANNELS 2 Zrotation Yrotation
				JOINT RightWrist
				{
					OFFSET 0.000000 -0.264825 0.000000 
					CHANNELS 2 Zrotation Xrotation
					End Site
					{
						OFFSET 0.006600 -0.176220 0.000990 
					}
				}
			}
		}
		JOINT LeftShoulder
		{
			OFFSET 0.019635 0.377685 -0.194865 
			CHANNELS 3 Zrotation Xrotation Yrotation
			JOINT LeftElbow
			{
				OFFSET 0.000000 -0.243375 0.000000 
				CHANNELS 2 Zrotation Yrotation
				JOINT LeftWrist
				{
					OFFSET 0.000000 -0.264825 0.000000 
					CHANNELS 2 Zrotation Xrotation
					End Site
					{
						OFFSET 0.006600 -0.176220 -0.000990 
					}
				}
			}
		}
	}
	JOINT RightHip
	{
		OFFSET 0.052140 -0.069960 0.075570 
		CHANNELS 3 Zrotation Xrotation Yrotation
		JOINT RightKnee
		{
			OFFSET 0.000000 -0.402270 0.000000 
			CHANNELS 1 Zrotation
			JOINT RightAnkle
			{
				OFFSET 0.000000 -0.404085 0.000000 
				CHANNELS 3 Zrotation Xrotation Yrotation
				End Site
				{
					OFFSET 0.204105 -0.089430 0.008415 
				}
			}
		}
	}
	JOINT LeftHip
	{
		OFFSET 0.052140 -0.069960 -0.075570 
		CHANNELS 3 Zrotation Xrotation Yrotation
		JOINT LeftKnee
		{
			OFFSET 0.000000 -0.402270 0.000000 
			CHANNELS 1 Zrotation
			JOINT LeftAnkle
			{
				OFFSET 0.000000 -0.404085 0.000000 
				CHANNELS 3 Zrotation Xrotation Yrotation
				End Site
				{
					OFFSET 0.204105 -0.089430 -0.008415 
				}
			}
		}
	}
}
MOTION
Frames: 25
Frame Time: 0.02
-1.33566 -0.28358 0.51792 369.73005 -15.62839 -1.36049 38.85142 0.22909 7.25199 -21.25274 -0.6123 -0.83079 7.50467 -71.66284 17.49446 36.46628 87.8268 3.1839 0.23938 -39.74068 17.3848 9.46766 36.68596 -86.53669 1.58068 -0.62919 44.7907 -7.07292 0.77635 -63.17485 -13.52454 -3.08622 -2.59321 45.39323 3.45507 7.89218 -12.35122 -13.43124 4.00725 3.11408
-1.3265 -0.28053 0.51021 369.91569 -14.90445 -1.73856 38.26509 0.24476 6.10898 -21.60457 -0.34137 -0.83079 9.04813 -72.04506 22.13306 38.40955 86.98143 2.26222 0.59044 -37.9742 19.0257 7.86902 37.74287 -85.3007 0.71972 -0.34807 45.47178 -7.07418 0.09402 -64.45693 -13.53771 -3.32687 -2.73142 44.78521 3.43238 7.25804 -14.42133 -12.87639 4.30869 3.26295
-1.31761 -0.27731 0.50326 370.21381 -14.24059 -2.24632 37.76473 0.27529 4.76302 -22.02015 0.15619 -0.83079 11.41316 -72.52253 27.9922 40.77693 86.21992 1.47222 1.00497 -36.08485 20.88171 6.09126 38.8646 -84.60755 0.19085 -0.03569 46.20925 -6.98374 -1.02434 -65.29148 -13.29967 -3.62845 -2.89167 44.23298 3.52493 7.84714 -16.41089 -12.51055 4.11823 3.12003
-1.30861 -0.27417 0.49602 370.4615 -13.56367 -2.69832 37.23604 0.303 3.49687 -22.39243 0.55216 -0.83079 13.38202 -72.89662 33.11963 42.95902 85.4427 0.69918 1.35786 -34.28425 22.64395 4.42181 39.98905 -83.69877 -0.46038 0.25219 46.9184 -6.91067 -1.91249 -66.23542 -13.18401 -3.89867 -3.04011 43.66376 3.5649 7.81513 -18.41601 -12.06083 4.16677 3.11935
-1.29959 -0.27101 0.48857 370.71226 -12.81856 -3.14195 36.65206 0.31592 2.27381 -22.82897 0.94639 -0.83079 15.43965 -73.53091 38.99234 45.13198 84.55165 -0.40374 1.84483 -32.34303 24.39497 2.63136 41.0017 -82.66733 -1.23472 0.58096 47.64758 -6.93218 -2.93195 -67.59805 -13.0366 -4.18663 -3.19751 43.06255 3.60582 8.01059 -20.53019 -11.59964 4.1674 3.08789
-1.29066 -0.26787 0.48172 370.98033 -12.23379 -3.62995 36.20816 0.36213 0.91936 -23.14452 1.39389 -0.83079 17.51349 -73.64398 43.60803 47.40934 83.92866 -0.7897 2.07214 -30.66303 26.2181 1.05056 42.24812 -82.02144 -1.66918 0.83289 48.34294 -6.74085 -3.7856 -67.9655 -12.89532 -4.45043 -3.34055 42.54101 3.67083 8.04325 -22.39054 -11.20848 4.14415 3.04729
-1.28191 -0.26476 0.47633 371.27816 -12.06589 -4.23246 36.12185 0.50094 -0.78428 -23.12035 1.96479 -0.83079 19.38921 -72.28822 44.39251 49.95404 83.97871 0.81389 1.53152 -29.77198 28.18794 0.12557 44.18784 -82.25116 -1.29292 0.86584 48.95794 -5.94873 -4.0448 -65.79828 -12.8241 -4.64273 -3.44351 42.21266 3.79037 7.30304 -23.56626 -10.96295 4.17727 3.05425
-1.27324 -0.26169 0.47151 371.58748 -12.0605 -4.87026 36.1764 0.67176 -2.60498 -22.96982 2.57545 -0.83079 21.25876 -70.40607 43.8786 52.57108 84.30505 3.12597 0.73419 -29.14095 30.22062 -0.58712 46.3453 -82.85698 -0.57938 0.82066 49.53118 -4.95282 -4.12922 -62.62477 -12.76977 -4.80648 -3.53021 41.96439 3.9276 6.36903 -24.48688 -10.78196 4.20032 3.06029
-1.26455 -0.25865 0.46644 371.884 -11.98884 -5.47598 36.17306 0.82488 -4.34836 -22.87038 3.14682 -0.83079 23.1623 -68.76629 44.00182 55.09936 84.53952 5.09016 0.07774 -28.36806 32.22546 -1.41697 48.35982 -83.32778 0.01232 0.81099 50.10488 -4.07425 -4.31167 -59.84093 -12.71131 -4.97656 -3.62095 41.68739 4.04601 5.54435 -25.52377 -10.57289 4.22451 3.06457
-1.25581 -0.2554 0.46136 372.21464 -11.88652 -6.15419 36.14653 0.99177 -6.2032 -22.80056 3.81542 -0.83079 24.97299 -67.11126 43.97814 57.88098 84.64036 7.17659 -0.67882 -27.69424 34.24096 -2.1652 50.56604 -83.67339 0.49026 0.80207 50.75834 -3.08829 -4.42509 -57.32345 -12.62491 -5.17711 -3.72654 41.37991 4.21296 4.66645 -26.55734 -10.36544 4.24721 3.06855
-1.24718 -0.2526 0.45643 372.47784 -11.88667 -6.68786 36.20089 1.1375 -7.84795 -22.63743 4.28837 -0.83079 26.95209 -65.3685 43.9247 60.14357 85.07662 9.16442 -1.28858 -26.87314 36.23875 -3.03162 52.41947 -84.35294 1.27169 0.77298 51.23564 -2.27848 -4.64224 -54.02283 -12.60935 -5.30631 -3.79716 41.15437 4.28276 3.84429 -27.53754 -10.16707 4.2759 3.07606
-1.23886 -0.25103 0.45179 372.53177 -12.12342 -6.81504 36.44206 1.21579 -8.9087 -22.25408 4.20724 -0.83079 29.50069 -63.45371 44.19551 60.97623 86.43433 10.79654 -1.4315 -25.62226 38.23485 -4.26468 53.28257 -85.93654 2.88574 0.70434 51.23164 -2.00934 -5.12884 -48.77117 -12.73928 -5.24187 -3.77041 41.13318 4.0688 3.16181 -28.43744 -9.98099 4.33425 3.09994
-1.23065 -0.24993 0.44728 372.52132 -12.45848 -6.7948 36.75949 1.27181 -9.74827 -21.77995 3.92778 -0.83079 32.1934 -61.4796 44.45648 61.27715 88.10647 12.28724 -1.41822 -24.20926 40.19731 -5.62385 53.77687 -87.82628 4.77701 0.61851 51.05328 -1.92469 -5.73702 -42.7792 -12.94907 -5.10293 -3.70726 41.19143 3.75813 2.5473 -29.29161 -9.80048 4.39936 3.12762
-1.22236 -0.24863 0.44272 372.55212 -12.75281 -6.84031 37.04328 1.33874 -10.67185 -21.34236 3.7403 -0.83079 34.75134 -59.57006 44.66005 61.80657 89.59499 13.7835 -1.47547 -22.84202 42.13417 -6.93381 54.41392 -89.52501 6.48976 0.54239 50.95669 -1.75251 -6.32374 -37.14555 -13.15459 -5.00534 -3.66702 41.21504 3.49823 1.93648 -30.16437 -9.61431 4.4569 3.15082
-1.21418 -0.24723 0.43818 372.52988 -13.0369 -6.89164 37.32881 1.40353 -11.66952 -20.91901 3.54529 -0.83079 37.61127 -57.48183 45.08836 62.39758 91.27131 15.55371 -1.54217 -21.59347 44.24963 -8.20809 55.15912 -91.4577 8.43836 0.45561 50.84453 -1.58658 -6.75297 -31.366 -13.22816 -4.89182 -3.60979 41.23695 3.20948 1.17499 -31.0386 -9.44305 4.533 3.18549
-1.2058 -0.24617 0.4336 372.60626 -13.36265 -6.89629 37.62566 1.46698 -12.45858 -20.44775 3.31989 -0.83079 39.86487 -55.76051 45.05292 62.72894 92.61981 16.70889 -1.5505 -20.06609 45.97969 -9.58209 55.59418 -92.96901 9.95454 0.3879 50.72829 -1.45684 -7.55262 -25.75042 -13.59182 -4.77326 -3.56643 41.27816 2.95854 0.74419 -31.90078 -9.24204 4.57195 3.19716
-1.19693 -0.24597 0.42885 372.9401 -13.78616 -6.79956 37.94585 1.53287 -12.7257 -19.85279 3.04538 -0.83079 40.50551 -55.05292 43.83094 62.50507 93.05282 16.21069 -1.41905 -17.72153 46.6921 -11.26401 55.21418 -93.25483 10.22911 0.37775 50.60356 -1.3592 -9.24257 -20.57892 -14.76544 -4.84436 -3.68608 41.37043 2.82719 1.2221 -32.75457 -8.94987 4.50991 3.14551
-1.18785 -0.24609 0.42407 373.38116 -14.24617 -6.66228 38.27216 1.5979 -12.78959 -19.21612 2.74966 -0.83079 40.51278 -54.72199 42.13311 62.03056 93.13281 15.09351 -1.23571 -15.11853 47.01051 -13.03125 54.54298 -93.1019 10.05393 0.38762 50.4866 -1.29658 -11.31646 -15.63799 -16.22132 -4.88304 -3.80217 41.47576 2.73856 2.02796 -33.59642 -8.62879 4.40985 3.07047
-1.17883 -0.24603 0.41932 373.79303 -14.68414 -6.54903 38.58781 1.6627 -12.9463 -18.60787 2.47222 -0.83079 40.74669 -54.23023 40.59788 61.65136 93.32734 14.24859 -1.0863 -12.68742 47.48361 -14.71881 54.03581 -93.13902 10.06899 0.38827 50.39475 -1.23425 -13.28876 -10.72185 -17.53121 -4.8094 -3.84043 41.56343 2.63601 2.67792 -34.4362 -8.32543 4.32499 3.00532
-1.16995 -0.24613 0.41448 374.11977 -15.14848 -6.40721 38.93916 1.72935 -13.09466 -17.95564 2.15069 -0.83079 41.24433 -53.69183 39.28289 61.33778 93.72031 13.43487 -0.88946 -10.01416 48.0577 -16.58299 53.38139 -93.2254 10.15157 0.38889 50.18328 -1.1111 -14.97663 -5.2345 -18.92503 -5.25087 -4.20134 41.70344 2.5075 3.36356 -35.3064 -8.00241 4.2486 2.94312
-1.16072 -0.24596 0.40983 374.65061 -15.5655 -6.31693 39.21698 1.79224 -13.21345 -17.38726 1.91941 -0.83079 41.04 -53.34155 37.40285 60.82788 93.62009 12.41404 -0.77919 -7.79452 48.32927 -18.09837 52.97022 -93.10233 9.9857 0.39441 50.21576 -1.11894 -17.32247 -0.99853 -20.20205 -4.63611 -3.90425 41.73647 2.44369 4.04633 -36.11038 -7.71408 4.14611 2.86954
-1.15063 -0.24501 0.40565 375.71452 -15.84024 -6.38188 39.28667 1.84542 -13.31366 -17.05332 1.93623 -0.83079 39.05336 -53.4134 34.02703 59.89966 92.17278 10.94669 -0.9372 -6.81983 47.85241 -18.62363 53.29426 -92.49623 9.21993 0.40976 51.00167 -1.4933 -21.59893 -0.19367 -21.15627 -0.91214 -1.66746 41.47085 2.55557 4.68819 -36.74038 -7.52294 3.97543 2.76723
-1.14016 -0.24378 0.40167 376.98075 -16.06624 -6.5004 39.28261 1.89516 -13.3892 -16.80703 2.04698 -0.83079 36.38102 -53.66244 30.11006 58.77367 90.25331 9.29868 -1.18177 -6.32556 47.08619 -18.79429 53.87538 -91.69661 8.22344 0.42903 52.01905 -1.9948 -26.48573 -0.63855 -21.97062 3.83569 1.2081 41.09699 2.73041 5.30649 -37.30328 -7.36888 3.78085 2.65488
-1.12981 -0.24265 0.39763 378.15808 -16.31563 -6.593 39.31406 1.94591 -13.46908 -16.52587 2.11959 -0.83079 34.02139 -53.83466 26.47358 57.69973 88.59504 7.74995 -1.37667 -5.6574 46.45937 -19.13209 54.34707 -90.99002 7.34584 0.44603 52.87697 -2.42846 -30.95532 -0.49353 -22.80264 7.9831 3.70999 40.77195 2.8717 5.90452 -37.89328 -7.20139 3.60068 2.54907
-1.11971 -0.24164 0.39343 379.32824 -16.56049 -6.69019 39.33663 1.99774 -13.57295 -16.22229 2.17129 -0.83079 31.63586 -54.00617 22.66965 56.77575 86.72685 6.1033 -1.61341 -4.78859 45.78725 -19.45234 54.78149 -90.24086 6.39032 0.46652 53.96164 -2.90619 -36.02553 -0.44683 -23.83558 12.70286 6.56416 40.44783 3.03428 6.64569 -38.49721 -7.01793 3.40396 2.43394
